<svg xmlns="http://www.w3.org/2000/svg" width="33" height="29" viewBox="0 0 33 29">
    <g fill="none" fill-rule="evenodd">
        <path stroke="#838383" stroke-width=".8" d="M17.24 2.662c-.385-.218-.821-.26-1.216-.15-.395.108-.748.368-.966.752L2.042 26.211c-.136.24-.208.512-.208.789 0 .442.179.842.468 1.131.29.29.69.469 1.132.469h26.032c.277 0 .549-.072.79-.208.384-.218.643-.571.752-.966.11-.395.068-.831-.15-1.215L17.842 3.264c-.143-.251-.351-.46-.603-.602z"/>
        <g fill="#838383" transform="translate(15.246 10.472)">
            <path d="M0 0L2.431 0 1.858 10.844 0.561 10.844z"/>
            <rect width="2.407" height="2.417" y="12.083" rx="1"/>
        </g>
    </g>
</svg>
