<svg xmlns="http://www.w3.org/2000/svg" width="770" height="675" viewBox="0 0 770 675">
    <path fill="#181818" fill-rule="evenodd" d="M385.026 0L349.37 40.343 145.956 276.219l-90.26-104.92L0 227.56l93.95 109.01L2.821 442.23 0 445.399l55.618 58.374 91.134-105.947 145.367 168.69-.32.31 3.545 3.502 36.033 41.769-.45.563 4.739 4.524 14.226 16.435L384.932 675l35.657-40.43 203.367-235.794 90.271 104.91L770 447.476 676.029 338.43l91.155-105.71 2.749-3.104-55.546-58.358-91.134 105.88-145.64-169.042.19-.32-3.183-3.1-36.033-41.778.48-.398-4.805-4.684-14.097-16.44L385.025 0zM200 337.497l185.98-216.676L572 337.534 386.026 554.179 200 337.497z"/>
</svg>
