<svg xmlns="http://www.w3.org/2000/svg" width="21" height="18" viewBox="0 0 21 18">
    <g fill="none" fill-rule="evenodd">
        <path stroke="#838383" stroke-width=".8" d="M11.042 2.651c-.384-.218-.82-.26-1.215-.152-.395.108-.749.367-.967.751L2.05 15.208c-.137.242-.21.514-.21.792 0 .442.18.842.47 1.131.289.29.689.469 1.13.469h13.62c.277 0 .55-.072.791-.21.384-.218.643-.572.752-.967.108-.395.066-.83-.153-1.215L11.64 3.25c-.142-.25-.349-.456-.598-.599z"/>
        <g fill="#838383" transform="translate(9.5 6.5)">
            <path d="M0 0L1.515 0 1.157 6.731 0.349 6.731z"/>
            <rect width="1.5" height="1.5" y="7.5" rx=".75"/>
        </g>
    </g>
</svg>
